# xmcd
#
# Track frame offsets:
#	150
#	19295
#	37456
#	52549
#	74870
#	90582
#	118797
#	143071
#	168336
#	188676
#	208191
#	227016
#	245581
#
# Disc length: 3509 seconds
#
# Revision: 0
# Processed by: cddbd v1.5.1PL2 Copyright (c) Steve Scherf et al.
# Submitted via: dBpowerAMP V4.0
#
DISCID=bc0db30d
DTITLE=Dead Guy Blues - Dead Guy Blues
DYEAR=2005
DGENRE=Blues
TTITLE0=I Told You Once
TTITLE1=Hooked On The Blues
TTITLE2=Beer and Whiskey Coffee and Cigarettes
TTITLE3=I Miss My Ball and Chain
TTITLE4=Workin
TTITLE5=Guess Who's Loving Her Now
TTITLE6=I Made Up My Mind
TTITLE7=Bad Voodoo
TTITLE8=I Feel Like An Outlaw Again
TTITLE9=Ill Be There For You
TTITLE10=Don't Try and Save Me
TTITLE11=Drunk As A Skunk
TTITLE12=Time to Change
EXTD=
EXTT0=
EXTT1=
EXTT2=
EXTT3=
EXTT4=
EXTT5=
EXTT6=
EXTT7=
EXTT8=
EXTT9=
EXTT10=
EXTT11=
EXTT12=
PLAYORDER=
